# xmcd
#
# Track frame offsets:
#	150
#	26032
#	40572
#	54157
#	88677
#	103242
#	134787
#	143575
#	157027
#	177430
#	188247
#
# Disc length: 2724 seconds
#
# Revision: 1
# Processed by: cddbd v1.5.1PL0 Copyright (c) Steve Scherf et al.
# Submitted via: audiograbber 1.83.01
#
DISCID=960aa20b
DTITLE=Mevlana - Suz-i dil-ara ayin-i
DYEAR=1900
DGENRE=
TTITLE0=Naat M. Refik Akbulut
TTITLE1=Ney Taksimi Ahmet Kaya
TTITLE2=Pesrev 3. Selim
TTITLE3=1. Selam
TTITLE4=2. Selam
TTITLE5=3. Selam
TTITLE6=4. Selam
TTITLE7=Rebab Taksim M. Refik Kaya
TTITLE8=Niyaz Iahi
TTITLE9=Kanun Taksim Yigit Dalar
TTITLE10=Kur'an-i Kerim M. Yigit Akbulut
EXTD=
EXTT0=
EXTT1=
EXTT2=
EXTT3=
EXTT4=
EXTT5=
EXTT6=
EXTT7=
EXTT8=
EXTT9=
EXTT10=
PLAYORDER=
